<svg width="27" height="24" viewBox="0 0 27 24" fill="#7D56A9" xmlns="http://www.w3.org/2000/svg">
  <path d="M0 5V8H24.3853C24.7988 8 25.1696 7.7456 25.3183 7.35987L26.4755 4.35987C26.7282 3.70473 26.2447 3 25.5425 3H24H23.7C23.7 3.83333 23.1 5.7 21.5 5.7C19.9 5.7 19.3 3.83333 19.3 3H16H15.7C15.7 3.83333 15.1 5.7 13.5 5.7C11.9 5.7 11.3 3.83333 11.3 3H8H7.7C7.7 3.83333 7.1 5.7 5.5 5.7C3.9 5.7 3.3 3.83333 3.3 3H2C0.895431 3 0 3.89543 0 5Z" fill="#7D56A9"/>
  <path d="M0 14V15H21C21.5523 15 22 14.5523 22 14V13C22 12.4477 21.5523 12 21 12H2C0.895431 12 0 12.8954 0 14Z" fill="#7D56A9"/>
  <path d="M0 22V19H24.3853C24.7988 19 25.1696 19.2544 25.3183 19.6401L26.4755 22.6401C26.7282 23.2953 26.2447 24 25.5425 24H2C0.895431 24 0 23.1046 0 22Z" fill="#7D56A9"/>
  <path d="M0 20V7H6V20H0Z" fill="#7D56A9"/>
  <path d="M4 1.66667V3.33333C4 3.88889 4.3 5 5.5 5C6.7 5 7 3.88889 7 3.33333V1.66667C7 1.11111 6.7 0 5.5 0C4.3 0 4 1.11111 4 1.66667Z" fill="#7D56A9"/>
  <path d="M12 1.66667V3.33333C12 3.88889 12.3 5 13.5 5C14.7 5 15 3.88889 15 3.33333V1.66667C15 1.11111 14.7 0 13.5 0C12.3 0 12 1.11111 12 1.66667Z" fill="#7D56A9"/>
  <path d="M20 1.66667V3.33333C20 3.88889 20.3 5 21.5 5C22.7 5 23 3.88889 23 3.33333V1.66667C23 1.11111 22.7 0 21.5 0C20.3 0 20 1.11111 20 1.66667Z" fill="#7D56A9"/>
</svg>